:SAMPLES-PER-SECOND 24
:FULLY-SPECIFIED
:DEGREES
431
root  5.73216 39.9722 21.8224 8.84216 -22.6315 -2.20325
RightUpLeg  -18.0982 -2.65299 2.49033
RightLeg  12.6049 -15.5496 -3.14723
RightFoot  -3.91637 0.284966 -4.84812
RightToes  -2.08645e-008 3.77894e-005 6.81332e-007
Spine  1.70623 -0.0954197 -8.78115
Spine1  4.81613 -1.48133 7.05193
HEad  -33.4911 15.5398 -10.7264
LeftShoulder1  6.66073 -12.5419 -35.4806
LeftArm  21.6894 -1.1565 -20.032
LeftForeArm  130.971 -79.2341 -118.365
LeftHand  -0.159195 -4.27993 2.19192
RightShoulder  4.14349 6.93595 33.8007
RightArm  11.1401 -27.0525 31.2455
RightForeArm  95.2548 80.478 79.0688
RightHand  -0.470002 8.49174 -4.29967
LeftUpLeg  -10.0533 -0.334674 3.02891
LeftLeg  7.85334 0.483244 1.89827
LeftFoot  -6.76862 0.275707 -5.89242
LeftToes  1.24767e-006 1.47042e-008 1.32732e-009
432
root  5.63832 39.8656 22.3194 8.0376 -21.4919 -0.9505
RightUpLeg  -18.2599 -3.22584 1.67296
RightLeg  15.5332 -17.7887 -5.33319
RightFoot  -4.98653 0.283998 -5.68541
RightToes  -2.08645e-008 3.77894e-005 6.81332e-007
Spine  1.30993 -0.299633 -6.81032
Spine1  5.74646 -1.32525 5.07637
HEad  -32.7524 15.4198 -11.1899
LeftShoulder1  7.11441 -12.9733 -37.102
LeftArm  19.8326 3.56383 -21.5197
LeftForeArm  122.164 -80.031 -108.511
LeftHand  -0.185145 -4.35852 2.48647
RightShoulder  4.1116 6.88239 33.6993
RightArm  10.1901 -27.0482 31.1813
RightForeArm  89.9448 80.264 73.5922
RightHand  -0.32109 8.5914 -3.04689
LeftUpLeg  -9.40581 -1.21095 1.82206
LeftLeg  8.67433 0.107924 1.60261
LeftFoot  -8.0102 0.22526 -6.10382
LeftToes  1.24767e-006 1.47042e-008 1.32732e-009
433
root  5.51821 39.7292 22.8323 7.22278 -21.3447 -0.298889
RightUpLeg  -17.9816 -3.14122 0.80716
RightLeg  18.1964 -17.752 -6.53742
RightFoot  -6.64539 0.126262 -4.14117
RightToes  -2.08645e-008 3.77894e-005 6.81332e-007
Spine  0.831604 0.0790576 -3.88798
Spine1  6.91876 -0.520438 2.94037
HEad  -31.7983 15.3656 -11.3153
LeftShoulder1  7.66619 -13.4711 -39.0079
LeftArm  16.2896 9.01238 -23.9373
LeftForeArm  111.714 -80.6169 -95.421
LeftHand  -0.265924 -4.01097 3.55781
RightShoulder  4.11222 6.85292 33.8176
RightArm  9.542 -26.0261 30.7705
RightForeArm  83.2155 79.831 66.1545
RightHand  -0.472981 8.61667 -4.29101
LeftUpLeg  -8.93998 -2.54372 1.1095
LeftLeg  10.8042 1.09516 1.64186
LeftFoot  -9.44721 0.153118 -5.82337
LeftToes  1.24767e-006 1.47042e-008 1.32732e-009
434
root  5.31944 39.604 23.3459 6.56812 -22.8195 -0.455688
RightUpLeg  -17.4478 -1.81183 0.837508
RightLeg  20.2502 -17.318 -7.1301
RightFoot  -7.73016 0.0658718 -3.74448
RightToes  -2.08645e-008 3.77894e-005 6.81332e-007
Spine  0.466399 1.03019 -0.417711
Spine1  7.94999 0.946089 0.667067
HEad  -30.5255 15.4486 -10.7755
LeftShoulder1  8.05482 -13.788 -40.3577
LeftArm  10.3755 15.8219 -27.4136
LeftForeArm  111.402 -80.8183 -91.5376
LeftHand  -0.291669 -3.36746 4.11591
RightShoulder  4.13688 6.8588 34.0316
RightArm  9.29053 -24.4793 30.2474
RightForeArm  79.0527 79.4014 60.4774
RightHand  -0.421023 8.60013 -3.8688
LeftUpLeg  -8.31102 -2.99302 1.23109
LeftLeg  13.3894 2.86914 1.74754
LeftFoot  -10.9702 0.0834286 -5.48834
LeftToes  1.24767e-006 1.47042e-008 1.32732e-009
435
root  4.99352 39.5174 23.862 6.10687 -24.8027 -0.805237
RightUpLeg  -16.3922 -0.294867 1.28114
RightLeg  21.214 -17.201 -7.41621
RightFoot  -8.9331 0.023687 -3.97669
RightToes  -2.08645e-008 3.77894e-005 6.81332e-007
Spine  -0.0901668 1.90617 2.13521
Spine1  8.76949 2.17911 -0.831089
HEad  -28.8962 15.9764 -9.42707
LeftShoulder1  8.09615 -13.7904 -40.577
LeftArm  2.35537 23.3913 -31.9354
LeftForeArm  116.974 -80.856 -95.4525
LeftHand  -0.252492 -3.12264 3.68293
RightShoulder  4.17766 6.88974 34.3027
RightArm  9.23236 -23.1595 30.1514
RightForeArm  78.0344 79.2431 58.5683
RightHand  -0.416228 8.62249 -3.82301
LeftUpLeg  -7.73718 -2.54689 1.6542
LeftLeg  16.1129 4.28669 1.92957
LeftFoot  -12.1092 0.031686 -6.04974
LeftToes  1.24767e-006 1.47042e-008 1.32732e-009
436
root  4.53643 39.4794 24.3552 5.90082 -25.9352 -0.912292
RightUpLeg  -15.1075 0.173801 1.63201
RightLeg  21.2139 -16.5149 -7.14216
RightFoot  -10.3046 -0.0373784 -3.50993
RightToes  -2.08645e-008 3.77894e-005 6.81332e-007
Spine  -1.08776 2.24768 3.2262
Spine1  9.41706 2.56168 -1.05518
HEad  -27.0586 16.682 -7.81426
LeftShoulder1  7.93054 -13.6157 -40.115
LeftArm  -5.34904 29.5707 -35.5557
LeftForeArm  116.163 -80.7165 -97.1279
LeftHand  -0.253046 -3.0523 3.71309
RightShoulder  4.22681 6.91798 34.6615
RightArm  8.86773 -22.6788 30.8088
RightForeArm  78.5851 79.3149 59.3088
RightHand  -0.434904 8.29996 -4.06113
LeftUpLeg  -8.46652 -1.08153 2.09549
LeftLeg  20.3522 3.94557 1.94351
LeftFoot  -12.6817 -0.00952528 -7.12909
LeftToes  1.24767e-006 1.47042e-008 1.32732e-009
437
root  4.00051 39.4784 24.7546 5.78998 -26.1704 -1.00879
RightUpLeg  -13.6708 0.27672 2.21376
RightLeg  20.6899 -16.3466 -6.90245
RightFoot  -11.2262 -0.0724249 -3.4095
RightToes  -2.08645e-008 3.77894e-005 6.81332e-007
Spine  -1.64158 2.21673 3.59121
Spine1  9.66692 2.39696 -0.616055
HEad  -25.6789 17.0013 -6.94167
LeftShoulder1  7.78883 -13.4791 -39.6783
LeftArm  -9.59386 32.728 -36.0673
LeftForeArm  107.658 -80.5896 -92.6895
LeftHand  -0.335901 -2.44064 5.19724
RightShoulder  4.27511 6.93446 35.0549
RightArm  8.04002 -22.981 31.7231
RightForeArm  80.9492 79.5716 62.023
RightHand  -0.527229 8.3985 -4.80635
LeftUpLeg  -11.4563 1.36916 3.05685
LeftLeg  28.0225 1.39665 1.1468
LeftFoot  -11.6643 0.0385489 -9.27144
LeftToes  1.24767e-006 1.47042e-008 1.32732e-009
438
root  3.48904 39.4611 25.0549 5.63593 -26.1954 -1.48566
RightUpLeg  -12.0208 0.679801 3.26501
RightLeg  19.9787 -17.0135 -6.92275
RightFoot  -11.9878 -0.103308 -3.95649
RightToes  -2.08645e-008 3.77894e-005 6.81332e-007
Spine  -1.02877 2.09554 4.18866
Spine1  9.21856 2.14011 -0.134219
HEad  -25.0286 17.0928 -6.76475
LeftShoulder1  7.66621 -13.3767 -39.252
LeftArm  -9.83039 33.5131 -33.8933
LeftForeArm  99.1389 -80.4917 -85.9869
LeftHand  -0.424979 -1.93128 6.92758
RightShoulder  4.27836 6.92226 35.133
RightArm  7.69753 -23.5066 32.2051
RightForeArm  83.5761 79.8352 65.6234
RightHand  -0.508861 8.28768 -4.68583
LeftUpLeg  -15.8299 3.42734 4.88281
LeftLeg  37.6279 -1.27669 -0.680643
LeftFoot  -7.76119 0.465125 -13.3527
LeftToes  1.24767e-006 1.47042e-008 1.32732e-009
439
root  3.06628 39.4055 25.3351 5.62567 -26.8012 -2.05298
RightUpLeg  -10.8522 0.896757 4.20441
RightLeg  19.6707 -16.6873 -6.69209
RightFoot  -12.8601 -0.142879 -4.23119
RightToes  -2.08645e-008 3.77894e-005 6.81332e-007
Spine  -0.0283851 2.00808 4.88743
Spine1  8.38369 1.97383 0.264555
HEad  -24.7836 17.6255 -6.68326
LeftShoulder1  7.51096 -13.2443 -38.7101
LeftArm  -7.61539 33.5359 -30.4533
LeftForeArm  96.6021 -80.4608 -83.2384
LeftHand  -0.482813 -2.11776 7.66464
RightShoulder  4.23175 6.89322 34.804
RightArm  8.70886 -23.5563 32.0191
RightForeArm  82.8317 79.7936 65.4597
RightHand  -0.536107 8.47239 -4.86086
LeftUpLeg  -19.8879 5.5898 6.57393
LeftLeg  44.7031 -2.038 -1.72309
LeftFoot  -4.00599 1.07179 -16.3575
LeftToes  1.24767e-006 1.47042e-008 1.32732e-009
440
root  2.70036 39.406 25.6437 5.62219 -28.422 -1.79901
RightUpLeg  -10.2336 1.56926 4.14642
RightLeg  19.5136 -15.7407 -6.29359
RightFoot  -13.4691 -0.170911 -4.29955
RightToes  -2.08645e-008 3.77894e-005 6.81332e-007
Spine  0.560566 2.07151 4.47124
Spine1  7.91827 1.97544 0.561315
HEad  -25.101 18.7648 -6.93877
LeftShoulder1  7.34871 -13.0956 -38.1591
LeftArm  -4.19762 33.3303 -26.6377
LeftForeArm  105.698 -80.5261 -92.2724
LeftHand  -0.503903 -2.15547 7.95366
RightShoulder  4.21149 6.90328 34.5727
RightArm  10.3373 -23.4163 30.9817
RightForeArm  84.9871 79.9375 66.311
RightHand  -0.436248 8.68532 -3.97077
LeftUpLeg  -22.6162 8.41447 6.74801
LeftLeg  46.1273 -0.572867 -0.213624
LeftFoot  -3.72849 1.05307 -15.3817
LeftToes  1.24767e-006 1.47042e-008 1.32732e-009
